<mxfile host="app.diagrams.net" modified="2023-08-02T13:59:53.034Z" agent="Mozilla/5.0 (Macintosh; Intel Mac OS X 10_15_7) AppleWebKit/537.36 (KHTML, like Gecko) Chrome/114.0.0.0 Whale/3.21.192.22 Safari/537.36" version="21.6.6" etag="sLMSRFfN9lQuDyNcKT4g" type="github">
  <diagram name="페이지-1" id="rdFq9jZCdQs9mqQkm2yD">
    <mxGraphModel>
      <root>
        <mxCell id="0" />
        <mxCell id="1" parent="0" />
      </root>
    </mxGraphModel>
  </diagram>
</mxfile>
